<?xml version="1.0" encoding="UTF-8" standalone="no"?>
<!DOCTYPE svg PUBLIC "-//W3C//DTD SVG 1.1//EN" "http://www.w3.org/Graphics/SVG/1.1/DTD/svg11.dtd">
<svg width="100%" height="100%" viewBox="0 0 1043 198" version="1.1" xmlns="http://www.w3.org/2000/svg" xmlns:xlink="http://www.w3.org/1999/xlink" xml:space="preserve" xmlns:serif="http://www.serif.com/" style="fill-rule:evenodd;clip-rule:evenodd;stroke-linejoin:round;stroke-miterlimit:2;">
    <g transform="matrix(1,0,0,1,-14,-7)">
        <g transform="matrix(1,0,0,1.16089,0,-1.12623)">
            <rect x="14" y="7" width="7" height="170" style="fill:rgb(61,67,111);"/>
            <rect x="28" y="7" width="21" height="170" style="fill:rgb(61,67,111);"/>
            <rect x="77" y="7" width="7" height="170" style="fill:rgb(61,67,111);"/>
            <rect x="91" y="7" width="14" height="170" style="fill:rgb(61,67,111);"/>
            <rect x="133" y="7" width="7" height="170" style="fill:rgb(61,67,111);"/>
            <rect x="147" y="7" width="56" height="170" style="fill:rgb(61,67,111);"/>
            <rect x="231" y="7" width="7" height="170" style="fill:rgb(61,67,111);"/>
            <rect x="245" y="7" width="7" height="170" style="fill:rgb(61,67,111);"/>
            <rect x="301" y="7" width="14" height="170" style="fill:rgb(61,67,111);"/>
            <rect x="336" y="7" width="7" height="170" style="fill:rgb(61,67,111);"/>
            <rect x="350" y="7" width="7" height="170" style="fill:rgb(61,67,111);"/>
            <rect x="364" y="7" width="14" height="170" style="fill:rgb(61,67,111);"/>
            <rect x="385" y="7" width="21" height="170" style="fill:rgb(61,67,111);"/>
            <rect x="413" y="7" width="28" height="170" style="fill:rgb(61,67,111);"/>
            <rect x="455" y="7" width="7" height="170" style="fill:rgb(61,67,111);"/>
            <rect x="483" y="7" width="7" height="170" style="fill:rgb(61,67,111);"/>
            <rect x="497" y="7" width="28" height="170" style="fill:rgb(61,67,111);"/>
            <rect x="567" y="7" width="21" height="170" style="fill:rgb(61,67,111);"/>
            <rect x="595" y="7" width="7" height="170" style="fill:rgb(61,67,111);"/>
            <rect x="616" y="7" width="7" height="170" style="fill:rgb(61,67,111);"/>
            <rect x="658" y="7" width="21" height="170" style="fill:rgb(61,67,111);"/>
            <rect x="686" y="7" width="21" height="170" style="fill:rgb(61,67,111);"/>
            <rect x="735" y="7" width="7" height="170" style="fill:rgb(61,67,111);"/>
            <rect x="749" y="7" width="21" height="170" style="fill:rgb(61,67,111);"/>
            <rect x="777" y="7" width="7" height="170" style="fill:rgb(61,67,111);"/>
            <rect x="798" y="7" width="28" height="170" style="fill:rgb(61,67,111);"/>
            <rect x="847" y="7" width="42" height="170" style="fill:rgb(61,67,111);"/>
            <rect x="917" y="7" width="7" height="170" style="fill:rgb(61,67,111);"/>
            <rect x="931" y="7" width="14" height="170" style="fill:rgb(61,67,111);"/>
            <rect x="952" y="7" width="7" height="170" style="fill:rgb(61,67,111);"/>
            <rect x="987" y="7" width="7" height="170" style="fill:rgb(61,67,111);"/>
            <rect x="1022" y="7" width="7" height="170" style="fill:rgb(61,67,111);"/>
            <rect x="1050" y="7" width="7" height="170" style="fill:rgb(61,67,111);"/>
        </g>
    </g>
</svg>
