<?xml version="1.0" encoding="UTF-8" standalone="no"?>
<!DOCTYPE svg PUBLIC "-//W3C//DTD SVG 1.1//EN" "http://www.w3.org/Graphics/SVG/1.1/DTD/svg11.dtd">
<svg width="100%" height="100%" viewBox="0 0 370 75" version="1.1" xmlns="http://www.w3.org/2000/svg" xmlns:xlink="http://www.w3.org/1999/xlink" xml:space="preserve" xmlns:serif="http://www.serif.com/" style="fill-rule:evenodd;clip-rule:evenodd;stroke-linejoin:round;stroke-miterlimit:2;">
    <g transform="matrix(1,0,0,1,-2486.75,-1926.76)">
        <g transform="matrix(2,0,0,2,0,0)">
            <g transform="matrix(0.5,0,0,0.5,0,0)">
                <g id="blue-hex" serif:id="blue hex">
                    <path d="M2855.94,1926.77L2486.74,1926.77L2486.74,2001.51L2855.94,2001.51L2855.94,1926.77ZM2576.56,1991.54C2575.01,1991.54 2573.1,1991.41 2570.82,1991.17C2568.54,1990.92 2566.27,1990.56 2564.01,1990.09C2561.76,1989.63 2559.88,1989.09 2558.4,1988.48L2558.4,1974.78C2560.82,1975.88 2563.42,1976.68 2566.2,1977.18C2568.98,1977.67 2571.47,1977.92 2573.67,1977.92C2576.36,1977.92 2578.37,1977.6 2579.69,1976.97C2581.01,1976.34 2581.67,1975.17 2581.67,1973.46C2581.67,1970.99 2579.66,1969.75 2575.65,1969.75L2566.32,1969.75L2567.39,1958.28L2575.15,1958.28C2577.19,1958.28 2578.63,1957.96 2579.49,1957.33C2580.34,1956.69 2580.76,1955.69 2580.76,1954.32C2580.76,1953.05 2580.16,1952.09 2578.95,1951.43C2577.74,1950.77 2575.81,1950.44 2573.17,1950.44C2570.64,1950.44 2568.11,1950.73 2565.58,1951.3C2563.05,1951.88 2560.9,1952.64 2559.14,1953.57L2559.14,1939.87C2561.34,1938.99 2564.01,1938.25 2567.15,1937.64C2570.28,1937.04 2573.45,1936.74 2576.64,1936.74C2581.32,1936.74 2585.3,1937.42 2588.61,1938.8C2591.91,1940.17 2594.44,1942.03 2596.2,1944.37C2597.96,1946.71 2598.84,1949.39 2598.84,1952.42C2598.84,1957.48 2597.19,1961.36 2593.89,1964.05C2595.76,1964.93 2597.22,1966.27 2598.26,1968.06C2599.31,1969.85 2599.83,1972.12 2599.83,1974.87C2599.83,1978.72 2598.81,1981.88 2596.78,1984.36C2594.74,1986.83 2591.97,1988.65 2588.48,1989.8C2584.99,1990.96 2581.01,1991.54 2576.56,1991.54ZM2724.37,1991.54C2722.83,1991.54 2720.92,1991.41 2718.64,1991.17C2716.35,1990.92 2714.08,1990.56 2711.83,1990.09C2709.57,1989.63 2707.7,1989.09 2706.21,1988.48L2706.21,1974.78C2708.64,1975.88 2711.24,1976.68 2714.01,1977.18C2716.79,1977.67 2719.28,1977.92 2721.48,1977.92C2724.18,1977.92 2726.19,1977.6 2727.51,1976.97C2728.83,1976.34 2729.49,1975.17 2729.49,1973.46C2729.49,1970.99 2727.48,1969.75 2723.46,1969.75L2714.14,1969.75L2715.21,1958.28L2722.97,1958.28C2725,1958.28 2726.45,1957.96 2727.3,1957.33C2728.15,1956.69 2728.58,1955.69 2728.58,1954.32C2728.58,1953.05 2727.97,1952.09 2726.76,1951.43C2725.55,1950.77 2723.63,1950.44 2720.99,1950.44C2718.46,1950.44 2715.93,1950.73 2713.39,1951.3C2710.86,1951.88 2708.72,1952.64 2706.96,1953.57L2706.96,1939.87C2709.16,1938.99 2711.83,1938.25 2714.96,1937.64C2718.1,1937.04 2721.26,1936.74 2724.45,1936.74C2729.13,1936.74 2733.12,1937.42 2736.42,1938.8C2739.72,1940.17 2742.25,1942.03 2744.01,1944.37C2745.77,1946.71 2746.66,1949.39 2746.66,1952.42C2746.66,1957.48 2745,1961.36 2741.7,1964.05C2743.57,1964.93 2745.03,1966.27 2746.08,1968.06C2747.12,1969.85 2747.64,1972.12 2747.64,1974.87C2747.64,1978.72 2746.63,1981.88 2744.59,1984.36C2742.56,1986.83 2739.79,1988.65 2736.3,1989.8C2732.8,1990.96 2728.83,1991.54 2724.37,1991.54ZM2774.47,1991.54C2766.66,1991.54 2760.85,1989.69 2757.05,1986.01C2753.26,1982.32 2751.36,1976.87 2751.36,1969.67L2751.36,1960.01C2751.36,1955.61 2752.38,1951.65 2754.41,1948.13C2756.45,1944.6 2759.41,1941.83 2763.28,1939.79C2767.16,1937.75 2771.83,1936.74 2777.27,1936.74C2780.3,1936.74 2782.95,1936.91 2785.24,1937.27C2787.52,1937.63 2789.76,1938.25 2791.97,1939.13L2791.97,1952.34C2789.98,1951.45 2787.96,1950.84 2785.9,1950.48C2783.84,1950.12 2781.57,1949.94 2779.09,1949.94C2775.4,1949.94 2772.61,1950.59 2770.71,1951.88C2768.82,1953.17 2767.87,1954.65 2767.87,1956.3L2767.87,1957.29C2769.13,1956.52 2770.75,1955.91 2772.74,1955.47C2774.72,1955.03 2776.56,1954.81 2778.26,1954.81C2784.92,1954.81 2789.75,1956.32 2792.75,1959.35C2795.75,1962.38 2797.25,1966.78 2797.25,1972.56C2797.25,1976.19 2796.49,1979.43 2794.98,1982.29C2793.46,1985.15 2791.04,1987.41 2787.72,1989.06C2784.39,1990.71 2779.97,1991.54 2774.47,1991.54ZM2802.61,1990.71L2802.61,1937.56L2843.8,1937.56L2843.8,1950.52L2820.36,1950.52L2820.36,1957.53L2840.66,1957.53L2840.66,1970.82L2820.36,1970.82L2820.36,1990.71L2802.61,1990.71ZM2681.78,1990.71L2681.78,1981.3L2658.43,1981.3L2658.43,1969.91L2684.26,1937.56L2699.53,1937.56L2699.53,1967.03L2704.15,1967.03L2704.15,1981.3L2699.53,1981.3L2699.53,1990.71L2681.78,1990.71ZM2605.19,1990.71L2605.19,1937.56L2629.71,1937.56C2635.26,1937.56 2640.02,1938.46 2643.98,1940.24C2647.95,1942.03 2651,1944.89 2653.15,1948.83C2655.29,1952.76 2656.36,1957.98 2656.36,1964.47C2656.36,1973.66 2654.03,1980.33 2649.35,1984.48C2644.67,1988.63 2638.12,1990.71 2629.71,1990.71L2605.19,1990.71ZM2499.8,1990.71L2503.51,1978.91L2498.89,1978.91L2498.89,1967.6L2507.06,1967.6L2509.21,1960.59L2502.11,1960.59L2502.11,1949.2L2512.84,1949.2L2516.47,1937.56L2531.66,1937.56L2527.94,1949.2L2535.54,1949.2L2539.17,1937.56L2554.27,1937.56L2550.64,1949.2L2554.68,1949.2L2554.68,1960.59L2547.01,1960.59L2544.86,1967.6L2551.55,1967.6L2551.55,1978.91L2541.31,1978.91L2537.6,1990.71L2522.5,1990.71L2526.21,1978.91L2518.62,1978.91L2514.9,1990.71L2499.8,1990.71ZM2774.55,1979.24C2779.17,1979.24 2781.48,1977.23 2781.48,1973.22C2781.48,1971.24 2780.99,1969.72 2780,1968.68C2779.01,1967.63 2777.25,1967.11 2774.72,1967.11C2773.62,1967.11 2772.47,1967.29 2771.29,1967.64C2770.11,1968 2768.97,1968.48 2767.87,1969.09L2767.87,1972.39C2767.87,1974.81 2768.43,1976.56 2769.56,1977.63C2770.68,1978.7 2772.35,1979.24 2774.55,1979.24ZM2622.94,1977.18L2627.56,1977.18C2629.82,1977.18 2631.74,1976.85 2633.34,1976.19C2634.93,1975.53 2636.16,1974.29 2637.01,1972.47C2637.86,1970.66 2638.29,1967.99 2638.29,1964.47C2638.29,1960.95 2637.91,1958.28 2637.13,1956.46C2636.36,1954.65 2635.18,1953.39 2633.59,1952.71C2631.99,1952.02 2629.98,1951.67 2627.56,1951.67L2622.94,1951.67L2622.94,1977.18ZM2675.51,1967.77L2685,1967.77L2685,1956.71L2675.51,1967.77ZM2522.17,1967.6L2529.76,1967.6L2531.91,1960.59L2524.39,1960.59L2522.17,1967.6Z" style="fill:rgb(61,67,111);"/>
                </g>
            </g>
        </g>
    </g>
</svg>
