<?xml version="1.0" encoding="UTF-8" standalone="no"?>
<!DOCTYPE svg PUBLIC "-//W3C//DTD SVG 1.1//EN" "http://www.w3.org/Graphics/SVG/1.1/DTD/svg11.dtd">
<svg width="100%" height="100%" viewBox="0 0 370 75" version="1.1" xmlns="http://www.w3.org/2000/svg" xmlns:xlink="http://www.w3.org/1999/xlink" xml:space="preserve" xmlns:serif="http://www.serif.com/" style="fill-rule:evenodd;clip-rule:evenodd;stroke-linejoin:round;stroke-miterlimit:2;">
    <g transform="matrix(1,0,0,1,-2486.75,-1931.8)">
        <g transform="matrix(2,0,0,2,0,0)">
            <g transform="matrix(0.5,0,0,0.5,0,0)">
                <path d="M2855.95,1931.8L2486.74,1931.8L2486.74,2006.6L2855.95,2006.6L2855.95,1931.8ZM2580.26,1995.76C2578.77,1995.76 2576.92,1995.64 2574.7,1995.4C2572.49,1995.16 2570.29,1994.81 2568.11,1994.36C2565.92,1993.91 2564.11,1993.39 2562.66,1992.8L2562.66,1979.52C2565.01,1980.59 2567.53,1981.36 2570.22,1981.84C2572.92,1982.32 2575.33,1982.56 2577.47,1982.56C2580.08,1982.56 2582.03,1982.25 2583.3,1981.64C2584.59,1981.03 2585.22,1979.89 2585.22,1978.24C2585.22,1975.84 2583.28,1974.64 2579.39,1974.64L2570.35,1974.64L2571.39,1963.52L2578.91,1963.52C2580.88,1963.52 2582.28,1963.21 2583.11,1962.6C2583.93,1961.99 2584.35,1961.01 2584.35,1959.68C2584.35,1958.45 2583.76,1957.52 2582.59,1956.88C2581.41,1956.24 2579.55,1955.92 2576.99,1955.92C2574.53,1955.92 2572.08,1956.2 2569.62,1956.76C2567.17,1957.32 2565.09,1958.05 2563.39,1958.96L2563.39,1945.68C2565.52,1944.83 2568.11,1944.11 2571.14,1943.52C2574.18,1942.93 2577.25,1942.64 2580.35,1942.64C2584.88,1942.64 2588.74,1943.31 2591.95,1944.64C2595.14,1945.97 2597.6,1947.77 2599.3,1950.04C2601.01,1952.31 2601.87,1954.91 2601.87,1957.84C2601.87,1962.75 2600.26,1966.51 2597.07,1969.12C2598.88,1969.97 2600.29,1971.27 2601.3,1973C2602.32,1974.73 2602.83,1976.93 2602.83,1979.6C2602.83,1983.33 2601.84,1986.4 2599.87,1988.8C2597.89,1991.2 2595.21,1992.96 2591.83,1994.08C2588.44,1995.2 2584.59,1995.76 2580.26,1995.76ZM2722.35,1995.76C2720.85,1995.76 2719,1995.64 2716.78,1995.4C2714.57,1995.16 2712.37,1994.81 2710.18,1994.36C2708,1993.91 2706.18,1993.39 2704.74,1992.8L2704.74,1979.52C2707.09,1980.59 2709.61,1981.36 2712.3,1981.84C2715,1982.32 2717.41,1982.56 2719.55,1982.56C2722.16,1982.56 2724.11,1982.25 2725.39,1981.64C2726.66,1981.03 2727.3,1979.89 2727.3,1978.24C2727.3,1975.84 2725.36,1974.64 2721.47,1974.64L2712.43,1974.64L2713.47,1963.52L2720.99,1963.52C2722.96,1963.52 2724.36,1963.21 2725.18,1962.6C2726.01,1961.99 2726.43,1961.01 2726.43,1959.68C2726.43,1958.45 2725.84,1957.52 2724.66,1956.88C2723.49,1956.24 2721.62,1955.92 2719.07,1955.92C2716.61,1955.92 2714.16,1956.2 2711.7,1956.76C2709.25,1957.32 2707.17,1958.05 2705.47,1958.96L2705.47,1945.68C2707.6,1944.83 2710.18,1944.11 2713.22,1943.52C2716.26,1942.93 2719.33,1942.64 2722.43,1942.64C2726.96,1942.64 2730.83,1943.31 2734.03,1944.64C2737.22,1945.97 2739.68,1947.77 2741.39,1950.04C2743.09,1952.31 2743.95,1954.91 2743.95,1957.84C2743.95,1962.75 2742.35,1966.51 2739.14,1969.12C2740.96,1969.97 2742.37,1971.27 2743.39,1973C2744.4,1974.73 2744.91,1976.93 2744.91,1979.6C2744.91,1983.33 2743.92,1986.4 2741.95,1988.8C2739.97,1991.2 2737.29,1992.96 2733.91,1994.08C2730.52,1995.2 2726.66,1995.76 2722.35,1995.76ZM2770.51,1995.76C2762.93,1995.76 2757.3,1993.97 2753.62,1990.4C2749.95,1986.83 2748.11,1981.55 2748.11,1974.56L2748.11,1965.2C2748.11,1960.93 2749.09,1957.09 2751.07,1953.68C2753.04,1950.27 2755.91,1947.57 2759.66,1945.6C2763.43,1943.63 2767.95,1942.64 2773.22,1942.64C2776.16,1942.64 2778.73,1942.81 2780.95,1943.16C2783.16,1943.51 2785.33,1944.11 2787.47,1944.96L2787.47,1957.76C2785.55,1956.91 2783.59,1956.31 2781.59,1955.96C2779.59,1955.61 2777.39,1955.44 2774.99,1955.44C2771.41,1955.44 2768.7,1956.07 2766.87,1957.32C2765.03,1958.57 2764.11,1960 2764.11,1961.6L2764.11,1962.56C2765.33,1961.81 2766.91,1961.23 2768.83,1960.8C2770.74,1960.37 2772.53,1960.16 2774.18,1960.16C2780.64,1960.16 2785.32,1961.63 2788.22,1964.56C2791.13,1967.49 2792.59,1971.76 2792.59,1977.36C2792.59,1980.88 2791.85,1984.03 2790.39,1986.8C2788.92,1989.57 2786.57,1991.76 2783.35,1993.36C2780.12,1994.96 2775.84,1995.76 2770.51,1995.76ZM2797.39,1994.96L2797.39,1943.44L2837.3,1943.44L2837.3,1956L2814.59,1956L2814.59,1962.8L2834.26,1962.8L2834.26,1975.68L2814.59,1975.68L2814.59,1994.96L2797.39,1994.96ZM2681.47,1994.96L2681.47,1985.84L2658.83,1985.84L2658.83,1974.8L2683.87,1943.44L2698.66,1943.44L2698.66,1972L2703.14,1972L2703.14,1985.84L2698.66,1985.84L2698.66,1994.96L2681.47,1994.96ZM2607.62,1994.96L2607.62,1943.44L2631.39,1943.44C2636.77,1943.44 2641.39,1944.31 2645.22,1946.04C2649.07,1947.77 2652.03,1950.55 2654.11,1954.36C2656.18,1958.17 2657.22,1963.23 2657.22,1969.52C2657.22,1978.43 2654.96,1984.89 2650.43,1988.92C2645.89,1992.95 2639.55,1994.96 2631.39,1994.96L2607.62,1994.96ZM2506.26,1994.96L2509.87,1983.52L2505.39,1983.52L2505.39,1972.56L2513.3,1972.56L2515.39,1965.76L2508.51,1965.76L2508.51,1954.72L2518.91,1954.72L2522.43,1943.44L2537.14,1943.44L2533.55,1954.72L2540.91,1954.72L2544.43,1943.44L2559.07,1943.44L2555.55,1954.72L2559.47,1954.72L2559.47,1965.76L2552.03,1965.76L2549.95,1972.56L2556.43,1972.56L2556.43,1983.52L2546.51,1983.52L2542.91,1994.96L2528.26,1994.96L2531.87,1983.52L2524.51,1983.52L2520.91,1994.96L2506.26,1994.96ZM2770.59,1983.84C2775.07,1983.84 2777.3,1981.89 2777.3,1978C2777.3,1976.08 2776.83,1974.61 2775.87,1973.6C2774.91,1972.59 2773.2,1972.08 2770.74,1972.08C2769.68,1972.08 2768.57,1972.25 2767.43,1972.6C2766.28,1972.95 2765.17,1973.41 2764.11,1974L2764.11,1977.2C2764.11,1979.55 2764.65,1981.24 2765.74,1982.28C2766.84,1983.32 2768.45,1983.84 2770.59,1983.84ZM2624.83,1981.84L2629.3,1981.84C2631.49,1981.84 2633.36,1981.52 2634.91,1980.88C2636.45,1980.24 2637.64,1979.04 2638.47,1977.28C2639.29,1975.52 2639.7,1972.93 2639.7,1969.52C2639.7,1966.11 2639.33,1963.52 2638.59,1961.76C2637.84,1960 2636.69,1958.79 2635.14,1958.12C2633.6,1957.45 2631.65,1957.12 2629.3,1957.12L2624.83,1957.12L2624.83,1981.84ZM2675.39,1972.72L2684.59,1972.72L2684.59,1962L2675.39,1972.72ZM2527.95,1972.56L2535.3,1972.56L2537.39,1965.76L2530.11,1965.76L2527.95,1972.56Z" style="fill:rgb(61,67,111);"/>
            </g>
        </g>
    </g>
</svg>
