<?xml version="1.0" encoding="UTF-8" standalone="no"?>
<!DOCTYPE svg PUBLIC "-//W3C//DTD SVG 1.1//EN" "http://www.w3.org/Graphics/SVG/1.1/DTD/svg11.dtd">
<svg width="100%" height="100%" viewBox="0 0 370 75" version="1.1" xmlns="http://www.w3.org/2000/svg" xmlns:xlink="http://www.w3.org/1999/xlink" xml:space="preserve" xmlns:serif="http://www.serif.com/" style="fill-rule:evenodd;clip-rule:evenodd;stroke-linejoin:round;stroke-miterlimit:2;">
    <g transform="matrix(1,0,0,1,-2486.33,-2011.85)">
        <g transform="matrix(1.88896,0,0,1.88896,132.334,243.097)">
            <g transform="matrix(0.529391,0,0,0.529391,-70.0565,-128.694)">
                <path d="M2855.53,2011.85L2486.33,2011.85L2486.33,2086.6L2855.53,2086.6L2855.53,2011.85ZM2699.98,2076.63C2698.44,2076.63 2696.53,2076.5 2694.24,2076.26C2691.96,2076.01 2689.69,2075.65 2687.43,2075.18C2685.18,2074.72 2683.31,2074.18 2681.82,2073.57L2681.82,2059.87C2684.24,2060.97 2686.84,2061.77 2689.62,2062.27C2692.4,2062.76 2694.89,2063.01 2697.09,2063.01C2699.79,2063.01 2701.8,2062.69 2703.12,2062.06C2704.44,2061.43 2705.1,2060.26 2705.1,2058.55C2705.1,2056.08 2703.09,2054.84 2699.07,2054.84L2689.75,2054.84L2690.82,2043.37L2698.58,2043.37C2700.61,2043.37 2702.06,2043.05 2702.91,2042.42C2703.76,2041.79 2704.19,2040.78 2704.19,2039.4C2704.19,2038.14 2703.58,2037.18 2702.37,2036.52C2701.16,2035.86 2699.24,2035.53 2696.6,2035.53C2694.07,2035.53 2691.53,2035.82 2689,2036.39C2686.47,2036.97 2684.33,2037.73 2682.57,2038.66L2682.57,2024.96C2684.77,2024.08 2687.43,2023.34 2690.57,2022.73C2693.71,2022.13 2696.87,2021.83 2700.06,2021.83C2704.74,2021.83 2708.73,2022.51 2712.03,2023.89C2715.33,2025.27 2717.86,2027.12 2719.62,2029.46C2721.38,2031.8 2722.26,2034.48 2722.26,2037.51C2722.26,2042.57 2720.61,2046.45 2717.31,2049.14C2719.18,2050.03 2720.64,2051.36 2721.69,2053.15C2722.73,2054.93 2723.25,2057.2 2723.25,2059.96C2723.25,2063.81 2722.24,2066.97 2720.2,2069.45C2718.16,2071.92 2715.4,2073.74 2711.91,2074.89C2708.41,2076.05 2704.44,2076.63 2699.98,2076.63ZM2809.09,2076.63C2801.28,2076.63 2795.47,2074.78 2791.67,2071.1C2787.88,2067.41 2785.98,2061.96 2785.98,2054.76L2785.98,2045.1C2785.98,2040.7 2787,2036.74 2789.03,2033.22C2791.07,2029.69 2794.03,2026.92 2797.91,2024.88C2801.78,2022.84 2806.45,2021.83 2811.89,2021.83C2814.92,2021.83 2817.58,2022.01 2819.86,2022.36C2822.14,2022.72 2824.38,2023.34 2826.59,2024.22L2826.59,2037.42C2824.6,2036.54 2822.58,2035.92 2820.52,2035.57C2818.45,2035.21 2816.18,2035.03 2813.71,2035.03C2810.02,2035.03 2807.23,2035.68 2805.33,2036.97C2803.43,2038.26 2802.49,2039.74 2802.49,2041.39L2802.49,2042.38C2803.75,2041.61 2805.37,2041 2807.36,2040.56C2809.34,2040.12 2811.18,2039.9 2812.88,2039.9C2819.54,2039.9 2824.37,2041.41 2827.37,2044.44C2830.37,2047.47 2831.87,2051.87 2831.87,2057.64C2831.87,2061.28 2831.11,2064.52 2829.6,2067.38C2828.08,2070.24 2825.66,2072.5 2822.33,2074.15C2819.01,2075.8 2814.59,2076.63 2809.09,2076.63ZM2630.82,2075.8L2630.82,2039.16L2621.9,2040.48L2621.9,2025.71L2648.56,2021.83L2648.56,2075.8L2630.82,2075.8ZM2660.78,2075.8L2660.78,2039.16L2651.86,2040.48L2651.86,2025.71L2678.52,2021.83L2678.52,2075.8L2660.78,2075.8ZM2569.08,2075.8L2569.08,2022.65L2593.6,2022.65C2599.15,2022.65 2603.91,2023.55 2607.87,2025.33C2611.84,2027.12 2614.89,2029.98 2617.03,2033.92C2619.18,2037.85 2620.25,2043.06 2620.25,2049.56C2620.25,2058.75 2617.91,2065.42 2613.24,2069.57C2608.56,2073.72 2602.01,2075.8 2593.6,2075.8L2569.08,2075.8ZM2510.9,2075.8L2514.61,2064L2509.99,2064L2509.99,2052.69L2518.16,2052.69L2520.31,2045.68L2513.21,2045.68L2513.21,2034.29L2523.94,2034.29L2527.57,2022.65L2542.76,2022.65L2539.04,2034.29L2546.64,2034.29L2550.27,2022.65L2565.37,2022.65L2561.74,2034.29L2565.78,2034.29L2565.78,2045.68L2558.11,2045.68L2555.96,2052.69L2562.65,2052.69L2562.65,2064L2552.41,2064L2548.7,2075.8L2533.6,2075.8L2537.31,2064L2529.72,2064L2526,2075.8L2510.9,2075.8ZM2724.91,2075.8L2745.29,2022.65L2763.86,2022.65L2784.33,2075.8L2765.84,2075.8L2761.71,2065.24L2747.44,2065.24L2743.39,2075.8L2724.91,2075.8ZM2809.17,2064.33C2813.79,2064.33 2816.1,2062.32 2816.1,2058.3C2816.1,2056.32 2815.61,2054.81 2814.62,2053.77C2813.63,2052.72 2811.87,2052.2 2809.34,2052.2C2808.24,2052.2 2807.09,2052.38 2805.91,2052.73C2804.73,2053.09 2803.59,2053.57 2802.49,2054.18L2802.49,2057.48C2802.49,2059.9 2803.05,2061.65 2804.18,2062.72C2805.3,2063.79 2806.97,2064.33 2809.17,2064.33ZM2586.83,2062.27L2591.45,2062.27C2593.71,2062.27 2595.63,2061.94 2597.23,2061.28C2598.82,2060.62 2600.05,2059.38 2600.9,2057.56C2601.75,2055.75 2602.18,2053.08 2602.18,2049.56C2602.18,2046.04 2601.79,2043.37 2601.02,2041.55C2600.25,2039.74 2599.07,2038.48 2597.47,2037.8C2595.88,2037.11 2593.87,2036.76 2591.45,2036.76L2586.83,2036.76L2586.83,2062.27ZM2749.58,2052.86L2759.57,2052.86L2754.53,2039.98L2749.58,2052.86ZM2533.26,2052.69L2540.86,2052.69L2543,2045.68L2535.49,2045.68L2533.26,2052.69Z" style="fill:rgb(209,51,166);"/>
            </g>
        </g>
    </g>
</svg>
