<?xml version="1.0" encoding="UTF-8" standalone="no"?>
<!DOCTYPE svg PUBLIC "-//W3C//DTD SVG 1.1//EN" "http://www.w3.org/Graphics/SVG/1.1/DTD/svg11.dtd">
<svg width="100%" height="100%" viewBox="0 0 391 80" version="1.1" xmlns="http://www.w3.org/2000/svg" xmlns:xlink="http://www.w3.org/1999/xlink" xml:space="preserve" xmlns:serif="http://www.serif.com/" style="fill-rule:evenodd;clip-rule:evenodd;stroke-linejoin:round;stroke-miterlimit:2;">
    <g transform="matrix(1,0,0,1,-2454.07,-1921.78)">
        <g transform="matrix(2,0,0,2,-38.3033,49.0477)">
            <g transform="matrix(0.5,0,0,0.5,19.1517,-24.5239)">
                <path d="M2844.97,1921.78L2454.07,1921.78L2454.07,2000.92L2844.97,2000.92L2844.97,1921.78ZM2549.16,1990.36C2547.53,1990.36 2545.5,1990.23 2543.08,1989.97C2540.66,1989.7 2538.26,1989.32 2535.87,1988.83C2533.49,1988.33 2531.51,1987.77 2529.93,1987.12L2529.93,1972.62C2532.49,1973.78 2535.25,1974.63 2538.19,1975.15C2541.13,1975.68 2543.77,1975.94 2546.1,1975.94C2548.95,1975.94 2551.08,1975.61 2552.48,1974.93C2553.88,1974.27 2554.57,1973.03 2554.57,1971.22C2554.57,1968.6 2552.45,1967.29 2548.2,1967.29L2538.32,1967.29L2539.46,1955.14L2547.67,1955.14C2549.83,1955.14 2551.36,1954.81 2552.26,1954.14C2553.16,1953.47 2553.61,1952.4 2553.61,1950.95C2553.61,1949.61 2552.97,1948.59 2551.69,1947.89C2550.41,1947.19 2548.37,1946.84 2545.57,1946.84C2542.89,1946.84 2540.21,1947.15 2537.53,1947.76C2534.85,1948.37 2532.58,1949.17 2530.72,1950.16L2530.72,1935.66C2533.05,1934.72 2535.87,1933.94 2539.2,1933.3C2542.51,1932.66 2545.87,1932.34 2549.24,1932.34C2554.2,1932.34 2558.42,1933.06 2561.91,1934.52C2565.41,1935.98 2568.09,1937.94 2569.95,1940.42C2571.82,1942.89 2572.75,1945.73 2572.75,1948.94C2572.75,1954.3 2571,1958.4 2567.51,1961.26C2569.49,1962.19 2571.03,1963.6 2572.14,1965.5C2573.24,1967.39 2573.8,1969.79 2573.8,1972.71C2573.8,1976.78 2572.72,1980.13 2570.57,1982.76C2568.41,1985.38 2565.48,1987.3 2561.78,1988.52C2558.08,1989.75 2553.88,1990.36 2549.16,1990.36ZM2705.66,1990.36C2704.03,1990.36 2702.01,1990.23 2699.59,1989.97C2697.17,1989.7 2694.77,1989.32 2692.38,1988.83C2689.99,1988.33 2688.01,1987.77 2686.44,1987.12L2686.44,1972.62C2689,1973.78 2691.75,1974.63 2694.69,1975.15C2697.64,1975.68 2700.27,1975.94 2702.6,1975.94C2705.46,1975.94 2707.58,1975.61 2708.98,1974.93C2710.38,1974.27 2711.08,1973.03 2711.08,1971.22C2711.08,1968.6 2708.95,1967.29 2704.7,1967.29L2694.83,1967.29L2695.96,1955.14L2704.18,1955.14C2706.33,1955.14 2707.86,1954.81 2708.76,1954.14C2709.67,1953.47 2710.12,1952.4 2710.12,1950.95C2710.12,1949.61 2709.48,1948.59 2708.2,1947.89C2706.91,1947.19 2704.87,1946.84 2702.08,1946.84C2699.4,1946.84 2696.72,1947.15 2694.04,1947.76C2691.36,1948.37 2689.09,1949.17 2687.22,1950.16L2687.22,1935.66C2689.55,1934.72 2692.38,1933.94 2695.7,1933.3C2699.02,1932.66 2702.37,1932.34 2705.75,1932.34C2710.7,1932.34 2714.92,1933.06 2718.42,1934.52C2721.91,1935.98 2724.59,1937.94 2726.46,1940.42C2728.32,1942.89 2729.25,1945.73 2729.25,1948.94C2729.25,1954.3 2727.51,1958.4 2724.01,1961.26C2725.99,1962.19 2727.54,1963.6 2728.64,1965.5C2729.75,1967.39 2730.3,1969.79 2730.3,1972.71C2730.3,1976.78 2729.22,1980.13 2727.07,1982.76C2724.91,1985.38 2721.99,1987.3 2718.29,1988.52C2714.59,1989.75 2710.38,1990.36 2705.66,1990.36ZM2758.7,1990.36C2750.43,1990.36 2744.28,1988.41 2740.26,1984.5C2736.24,1980.6 2734.24,1974.83 2734.24,1967.2L2734.24,1956.98C2734.24,1952.32 2735.31,1948.12 2737.47,1944.39C2739.62,1940.67 2742.76,1937.72 2746.86,1935.57C2750.97,1933.41 2755.91,1932.34 2761.67,1932.34C2764.88,1932.34 2767.69,1932.53 2770.11,1932.9C2772.52,1933.28 2774.9,1933.94 2777.23,1934.87L2777.23,1948.85C2775.13,1947.92 2772.99,1947.26 2770.8,1946.88C2768.62,1946.51 2766.22,1946.32 2763.6,1946.32C2759.69,1946.32 2756.74,1947 2754.73,1948.37C2752.72,1949.74 2751.71,1951.3 2751.71,1953.05L2751.71,1954.09C2753.05,1953.28 2754.77,1952.64 2756.87,1952.17C2758.97,1951.7 2760.92,1951.47 2762.72,1951.47C2769.77,1951.47 2774.88,1953.07 2778.06,1956.28C2781.23,1959.48 2782.82,1964.14 2782.82,1970.26C2782.82,1974.11 2782.02,1977.54 2780.42,1980.57C2778.82,1983.6 2776.25,1985.99 2772.73,1987.74C2769.2,1989.48 2764.53,1990.36 2758.7,1990.36ZM2788.5,1989.48L2788.5,1933.21L2832.11,1933.21L2832.11,1946.93L2807.29,1946.93L2807.29,1954.36L2828.78,1954.36L2828.78,1968.42L2807.29,1968.42L2807.29,1989.48L2788.5,1989.48ZM2660.57,1989.48L2660.57,1979.52L2635.84,1979.52L2635.84,1967.46L2663.19,1933.21L2679.36,1933.21L2679.36,1964.4L2684.25,1964.4L2684.25,1979.52L2679.36,1979.52L2679.36,1989.48L2660.57,1989.48ZM2579.48,1989.48L2579.48,1933.21L2605.43,1933.21C2611.32,1933.21 2616.35,1934.16 2620.55,1936.05C2624.74,1937.94 2627.98,1940.97 2630.25,1945.14C2632.52,1949.3 2633.66,1954.82 2633.66,1961.7C2633.66,1971.42 2631.18,1978.49 2626.23,1982.89C2621.28,1987.29 2614.35,1989.48 2605.43,1989.48L2579.48,1989.48ZM2467.89,1989.48L2471.82,1976.99L2466.93,1976.99L2466.93,1965.02L2475.58,1965.02L2477.85,1957.59L2470.34,1957.59L2470.34,1945.53L2481.7,1945.53L2485.54,1933.21L2501.62,1933.21L2497.69,1945.53L2505.73,1945.53L2509.57,1933.21L2525.56,1933.21L2521.72,1945.53L2526,1945.53L2526,1957.59L2517.87,1957.59L2515.6,1965.02L2522.68,1965.02L2522.68,1976.99L2511.84,1976.99L2507.91,1989.48L2491.92,1989.48L2495.85,1976.99L2487.81,1976.99L2483.88,1989.48L2467.89,1989.48ZM2758.79,1977.34C2763.68,1977.34 2766.13,1975.21 2766.13,1970.96C2766.13,1968.86 2765.61,1967.26 2764.56,1966.15C2763.51,1965.05 2761.64,1964.49 2758.97,1964.49C2757.8,1964.49 2756.59,1964.68 2755.34,1965.06C2754.09,1965.44 2752.88,1965.95 2751.71,1966.59L2751.71,1970.09C2751.71,1972.65 2752.31,1974.5 2753.5,1975.63C2754.7,1976.77 2756.46,1977.34 2758.79,1977.34ZM2598.27,1975.15L2603.16,1975.15C2605.55,1975.15 2607.59,1974.8 2609.28,1974.11C2610.97,1973.41 2612.26,1972.1 2613.16,1970.17C2614.07,1968.25 2614.52,1965.42 2614.52,1961.7C2614.52,1957.97 2614.11,1955.14 2613.3,1953.22C2612.48,1951.3 2611.23,1949.97 2609.54,1949.24C2607.85,1948.52 2605.72,1948.15 2603.16,1948.15L2598.27,1948.15L2598.27,1975.15ZM2653.93,1965.19L2663.98,1965.19L2663.98,1953.48L2653.93,1965.19ZM2491.57,1965.02L2499.61,1965.02L2501.88,1957.59L2493.93,1957.59L2491.57,1965.02Z" style="fill:rgb(61,67,111);"/>
            </g>
        </g>
    </g>
</svg>
