<?xml version="1.0" encoding="UTF-8" standalone="no"?>
<!DOCTYPE svg PUBLIC "-//W3C//DTD SVG 1.1//EN" "http://www.w3.org/Graphics/SVG/1.1/DTD/svg11.dtd">
<svg width="100%" height="100%" viewBox="0 0 95 89" version="1.1" xmlns="http://www.w3.org/2000/svg" xmlns:xlink="http://www.w3.org/1999/xlink" xml:space="preserve" xmlns:serif="http://www.serif.com/" style="fill-rule:evenodd;clip-rule:evenodd;stroke-linejoin:round;stroke-miterlimit:2;">
    <g transform="matrix(1,0,0,1,-941.707,-219.955)">
        <g transform="matrix(0.0857569,-3.46945e-18,0,0.0932819,937.419,208.351)">
            <path d="M1102.31,255.093C991.888,86.537 718.828,77.894 596.981,284.542C531.644,183.907 466.296,157.623 443.22,147.942C204.036,47.6 -10.969,286.244 65.833,517.921C98.876,617.595 163.882,710.63 240.684,781.614C354.175,886.508 474.36,984.677 599.414,1075.61C699.386,1001.97 796.361,923.51 889.365,841.28C1012.93,732.034 1151.67,599.569 1149.98,421.479C1149.36,355.503 1131.53,299.698 1102.31,255.093Z" style="fill:rgb(209,51,166);fill-rule:nonzero;"/>
        </g>
    </g>
</svg>
