<?xml version="1.0" encoding="UTF-8" standalone="no"?>
<!DOCTYPE svg PUBLIC "-//W3C//DTD SVG 1.1//EN" "http://www.w3.org/Graphics/SVG/1.1/DTD/svg11.dtd">
<svg width="100%" height="100%" viewBox="0 0 391 80" version="1.1" xmlns="http://www.w3.org/2000/svg" xmlns:xlink="http://www.w3.org/1999/xlink" xml:space="preserve" xmlns:serif="http://www.serif.com/" style="fill-rule:evenodd;clip-rule:evenodd;stroke-linejoin:round;stroke-miterlimit:2;">
    <g transform="matrix(1,0,0,1,-2454.07,-2010.66)">
        <g transform="matrix(2,0,0,2,-38.3033,137.933)">
            <g transform="matrix(0.5,0,0,0.5,19.1517,-68.9666)">
                <path d="M2844.97,2010.66L2454.07,2010.66L2454.07,2089.8L2844.97,2089.8L2844.97,2010.66ZM2714.49,2079.24C2712.86,2079.24 2710.83,2079.11 2708.41,2078.85C2706,2078.59 2703.59,2078.21 2701.2,2077.71C2698.82,2077.22 2696.84,2076.65 2695.26,2076.01L2695.26,2061.51C2697.83,2062.67 2700.58,2063.51 2703.52,2064.04C2706.46,2064.56 2709.1,2064.82 2711.43,2064.82C2714.28,2064.82 2716.41,2064.49 2717.81,2063.82C2719.2,2063.15 2719.9,2061.91 2719.9,2060.11C2719.9,2057.49 2717.78,2056.17 2713.53,2056.17L2703.65,2056.17L2704.79,2044.03L2713,2044.03C2715.16,2044.03 2716.69,2043.69 2717.59,2043.02C2718.49,2042.35 2718.94,2041.29 2718.94,2039.83C2718.94,2038.49 2718.3,2037.47 2717.02,2036.78C2715.74,2036.08 2713.7,2035.73 2710.9,2035.73C2708.22,2035.73 2705.54,2036.03 2702.86,2036.64C2700.18,2037.26 2697.91,2038.06 2696.05,2039.05L2696.05,2024.54C2698.38,2023.61 2701.2,2022.82 2704.53,2022.18C2707.85,2021.54 2711.2,2021.22 2714.57,2021.22C2719.53,2021.22 2723.75,2021.95 2727.24,2023.4C2730.74,2024.86 2733.42,2026.83 2735.28,2029.3C2737.15,2031.78 2738.08,2034.62 2738.08,2037.82C2738.08,2043.18 2736.33,2047.29 2732.84,2050.14C2734.82,2051.08 2736.36,2052.49 2737.47,2054.38C2738.58,2056.28 2739.13,2058.68 2739.13,2061.59C2739.13,2065.67 2738.05,2069.02 2735.9,2071.64C2733.74,2074.26 2730.81,2076.18 2727.11,2077.41C2723.41,2078.63 2719.2,2079.24 2714.49,2079.24ZM2797.15,2078.37L2797.15,2039.57L2787.71,2040.97L2787.71,2025.33L2815.94,2021.22L2815.94,2078.37L2797.15,2078.37ZM2545.66,2078.37L2545.66,2022.09L2589.44,2022.09L2589.44,2035.99L2564.45,2035.99L2564.45,2043.15L2586.21,2043.15L2586.21,2057.4L2564.45,2057.4L2564.45,2064.48L2589.44,2064.48L2589.44,2078.37L2545.66,2078.37ZM2650.17,2078.37L2650.17,2022.09L2693.95,2022.09L2693.95,2035.99L2668.96,2035.99L2668.96,2043.15L2690.72,2043.15L2690.72,2057.4L2668.96,2057.4L2668.96,2064.48L2693.95,2064.48L2693.95,2078.37L2650.17,2078.37ZM2742.62,2078.37L2742.62,2022.09L2786.4,2022.09L2786.4,2035.99L2761.41,2035.99L2761.41,2043.15L2783.17,2043.15L2783.17,2057.4L2761.41,2057.4L2761.41,2064.48L2786.4,2064.48L2786.4,2078.37L2742.62,2078.37ZM2592.5,2078.37L2592.5,2022.09L2618.45,2022.09C2624.34,2022.09 2629.38,2023.04 2633.57,2024.93C2637.76,2026.83 2641,2029.86 2643.27,2034.02C2645.54,2038.19 2646.68,2043.71 2646.68,2050.58C2646.68,2060.31 2644.2,2067.37 2639.25,2071.77C2634.3,2076.17 2627.37,2078.37 2618.45,2078.37L2592.5,2078.37ZM2484.05,2078.37L2487.99,2065.87L2483.09,2065.87L2483.09,2053.9L2491.74,2053.9L2494.02,2046.47L2486.5,2046.47L2486.5,2034.42L2497.86,2034.42L2501.71,2022.09L2517.78,2022.09L2513.85,2034.42L2521.89,2034.42L2525.74,2022.09L2541.73,2022.09L2537.88,2034.42L2542.17,2034.42L2542.17,2046.47L2534.04,2046.47L2531.77,2053.9L2538.85,2053.9L2538.85,2065.87L2528.01,2065.87L2524.08,2078.37L2508.09,2078.37L2512.02,2065.87L2503.98,2065.87L2500.05,2078.37L2484.05,2078.37ZM2611.29,2064.04L2616.18,2064.04C2618.57,2064.04 2620.61,2063.69 2622.3,2062.99C2623.99,2062.29 2625.28,2060.98 2626.18,2059.06C2627.09,2057.14 2627.54,2054.31 2627.54,2050.58C2627.54,2046.85 2627.13,2044.03 2626.32,2042.11C2625.5,2040.18 2624.25,2038.86 2622.56,2038.13C2620.87,2037.4 2618.74,2037.04 2616.18,2037.04L2611.29,2037.04L2611.29,2064.04ZM2507.74,2053.9L2515.78,2053.9L2518.05,2046.47L2510.1,2046.47L2507.74,2053.9Z" style="fill:rgb(209,51,166);"/>
            </g>
        </g>
    </g>
</svg>
