<?xml version="1.0" encoding="UTF-8" standalone="no"?>
<!DOCTYPE svg PUBLIC "-//W3C//DTD SVG 1.1//EN" "http://www.w3.org/Graphics/SVG/1.1/DTD/svg11.dtd">
<svg width="100%" height="100%" viewBox="0 0 861 180" version="1.1" xmlns="http://www.w3.org/2000/svg" xmlns:xlink="http://www.w3.org/1999/xlink" xml:space="preserve" xmlns:serif="http://www.serif.com/" style="fill-rule:evenodd;clip-rule:evenodd;stroke-linejoin:round;stroke-miterlimit:2;">
    <g transform="matrix(1,0,0,1,-2883.49,-913.626)">
        <g transform="matrix(1.764,-0.183928,0.183928,1.764,707.838,331.579)">
            <g transform="matrix(0.497304,0.0518527,-0.0518527,0.497304,189.139,-131.432)">
                <path d="M2714.56,957.037L2825.35,1158.9L2603.77,1158.9L2714.56,957.037ZM2714.56,994.536L2794.87,1140.86C2794.87,1140.86 2634.25,1140.86 2634.25,1140.86L2714.56,994.536Z" style="fill:rgb(61,67,111);"/>
            </g>
        </g>
        <g transform="matrix(1.764,-0.183928,0.183928,1.764,707.838,331.579)">
            <g transform="matrix(0.497304,0.0518527,-0.0518527,0.497304,64.9824,-144.378)">
                <path d="M2714.56,957.037L2825.35,1158.9L2603.77,1158.9L2714.56,957.037Z" style="fill:rgb(61,67,111);"/>
            </g>
        </g>
        <g transform="matrix(1.764,-0.183928,0.183928,1.764,707.838,331.579)">
            <g transform="matrix(0.497304,0.0518527,-0.0518527,0.497304,-59.1738,-157.323)">
                <path d="M2714.56,957.037L2825.35,1158.9L2603.77,1158.9L2714.56,957.037ZM2714.56,994.536L2794.87,1140.86C2794.87,1140.86 2688.2,1140.86 2634.25,1140.86L2714.56,994.536Z" style="fill:rgb(61,67,111);"/>
            </g>
        </g>
        <g transform="matrix(1.764,-0.183928,0.183928,1.764,707.838,331.579)">
            <g transform="matrix(0.497304,0.0518527,-0.0518527,0.497304,313.295,-118.487)">
                <path d="M2714.56,957.037L2825.35,1158.9L2603.77,1158.9L2714.56,957.037Z" style="fill:rgb(61,67,111);"/>
            </g>
        </g>
    </g>
</svg>
