<?xml version="1.0" encoding="UTF-8" standalone="no"?>
<!DOCTYPE svg PUBLIC "-//W3C//DTD SVG 1.1//EN" "http://www.w3.org/Graphics/SVG/1.1/DTD/svg11.dtd">
<svg width="100%" height="100%" viewBox="0 0 370 75" version="1.1" xmlns="http://www.w3.org/2000/svg" xmlns:xlink="http://www.w3.org/1999/xlink" xml:space="preserve" xmlns:serif="http://www.serif.com/" style="fill-rule:evenodd;clip-rule:evenodd;stroke-linejoin:round;stroke-miterlimit:2;">
    <g transform="matrix(1,0,0,1,-2486.75,-2019.62)">
        <g transform="matrix(2,0,0,2,0,0)">
            <g transform="matrix(0.5,0,0,0.5,0,0)">
                <path d="M2855.95,2019.62L2486.74,2019.62L2486.74,2094.42L2855.95,2094.42L2855.95,2019.62ZM2670.47,2083.58C2668.97,2083.58 2667.12,2083.46 2664.91,2083.22C2662.69,2082.98 2660.49,2082.63 2658.3,2082.18C2656.12,2081.73 2654.3,2081.21 2652.87,2080.62L2652.87,2067.34C2655.21,2068.41 2657.73,2069.18 2660.43,2069.66C2663.12,2070.14 2665.53,2070.38 2667.66,2070.38C2670.28,2070.38 2672.22,2070.07 2673.51,2069.46C2674.78,2068.85 2675.43,2067.71 2675.43,2066.06C2675.43,2063.66 2673.48,2062.46 2669.59,2062.46L2660.55,2062.46L2661.59,2051.34L2669.11,2051.34C2671.08,2051.34 2672.48,2051.03 2673.3,2050.42C2674.13,2049.81 2674.55,2048.83 2674.55,2047.5C2674.55,2046.27 2673.96,2045.34 2672.78,2044.7C2671.61,2044.06 2669.74,2043.74 2667.18,2043.74C2664.73,2043.74 2662.28,2044.02 2659.83,2044.58C2657.37,2045.14 2655.29,2045.87 2653.59,2046.78L2653.59,2033.5C2655.72,2032.65 2658.3,2031.93 2661.35,2031.34C2664.39,2030.75 2667.45,2030.46 2670.55,2030.46C2675.08,2030.46 2678.95,2031.13 2682.14,2032.46C2685.35,2033.79 2687.8,2035.59 2689.51,2037.86C2691.21,2040.13 2692.07,2042.73 2692.07,2045.66C2692.07,2050.57 2690.47,2054.33 2687.26,2056.94C2689.08,2057.79 2690.49,2059.09 2691.51,2060.82C2692.52,2062.55 2693.03,2064.75 2693.03,2067.42C2693.03,2071.15 2692.04,2074.22 2690.07,2076.62C2688.09,2079.02 2685.41,2080.78 2682.03,2081.9C2678.64,2083.02 2674.78,2083.58 2670.47,2083.58ZM2810.07,2083.58C2802.49,2083.58 2796.87,2081.79 2793.18,2078.22C2789.51,2074.65 2787.66,2069.37 2787.66,2062.38L2787.66,2053.02C2787.66,2048.75 2788.65,2044.91 2790.62,2041.5C2792.6,2038.09 2795.47,2035.39 2799.22,2033.42C2802.99,2031.45 2807.51,2030.46 2812.78,2030.46C2815.72,2030.46 2818.29,2030.63 2820.51,2030.98C2822.72,2031.33 2824.89,2031.93 2827.03,2032.78L2827.03,2045.58C2825.11,2044.73 2823.14,2044.13 2821.14,2043.78C2819.14,2043.43 2816.95,2043.26 2814.55,2043.26C2810.97,2043.26 2808.26,2043.89 2806.43,2045.14C2804.59,2046.39 2803.66,2047.82 2803.66,2049.42L2803.66,2050.38C2804.89,2049.63 2806.47,2049.05 2808.39,2048.62C2810.3,2048.19 2812.09,2047.98 2813.74,2047.98C2820.2,2047.98 2824.88,2049.45 2827.78,2052.38C2830.69,2055.31 2832.14,2059.58 2832.14,2065.18C2832.14,2068.7 2831.41,2071.85 2829.95,2074.62C2828.48,2077.39 2826.13,2079.58 2822.91,2081.18C2819.68,2082.78 2815.4,2083.58 2810.07,2083.58ZM2630.87,2082.78L2630.87,2047.26L2622.22,2048.54L2622.22,2034.22L2648.07,2030.46L2648.07,2082.78L2630.87,2082.78ZM2704.87,2082.78L2704.87,2047.26L2696.22,2048.54L2696.22,2034.22L2722.07,2030.46L2722.07,2082.78L2704.87,2082.78ZM2569.43,2082.78L2569.43,2031.26L2593.18,2031.26C2598.57,2031.26 2603.18,2032.13 2607.03,2033.86C2610.87,2035.59 2613.83,2038.37 2615.91,2042.18C2617.99,2045.99 2619.03,2051.05 2619.03,2057.34C2619.03,2066.25 2616.76,2072.71 2612.22,2076.74C2607.69,2080.77 2601.35,2082.78 2593.18,2082.78L2569.43,2082.78ZM2511.43,2082.78L2515.03,2071.34L2510.55,2071.34L2510.55,2060.38L2518.47,2060.38L2520.55,2053.58L2513.66,2053.58L2513.66,2042.54L2524.07,2042.54L2527.59,2031.26L2542.3,2031.26L2538.7,2042.54L2546.07,2042.54L2549.59,2031.26L2564.22,2031.26L2560.7,2042.54L2564.62,2042.54L2564.62,2053.58L2557.18,2053.58L2555.11,2060.38L2561.59,2060.38L2561.59,2071.34L2551.66,2071.34L2548.07,2082.78L2533.43,2082.78L2537.03,2071.34L2529.66,2071.34L2526.07,2082.78L2511.43,2082.78ZM2726.87,2082.78L2746.62,2031.26L2764.62,2031.26L2784.47,2082.78L2766.55,2082.78L2762.55,2072.54L2748.7,2072.54L2744.78,2082.78L2726.87,2082.78ZM2810.14,2071.66C2814.62,2071.66 2816.87,2069.71 2816.87,2065.82C2816.87,2063.9 2816.39,2062.43 2815.43,2061.42C2814.47,2060.41 2812.76,2059.9 2810.3,2059.9C2809.24,2059.9 2808.13,2060.07 2806.99,2060.42C2805.84,2060.77 2804.73,2061.23 2803.66,2061.82L2803.66,2065.02C2803.66,2067.37 2804.21,2069.06 2805.3,2070.1C2806.4,2071.14 2808.01,2071.66 2810.14,2071.66ZM2586.62,2069.66L2591.11,2069.66C2593.29,2069.66 2595.16,2069.34 2596.7,2068.7C2598.25,2068.06 2599.44,2066.86 2600.26,2065.1C2601.09,2063.34 2601.51,2060.75 2601.51,2057.34C2601.51,2053.93 2601.13,2051.34 2600.39,2049.58C2599.64,2047.82 2598.49,2046.61 2596.95,2045.94C2595.4,2045.27 2593.45,2044.94 2591.11,2044.94L2586.62,2044.94L2586.62,2069.66ZM2750.78,2060.54L2760.47,2060.54L2755.59,2048.06L2750.78,2060.54ZM2533.11,2060.38L2540.47,2060.38L2542.55,2053.58L2535.26,2053.58L2533.11,2060.38Z" style="fill:rgb(209,49,166);"/>
            </g>
        </g>
    </g>
</svg>
